HIERARCHY
ROOT Hips
{
     OFFSET 26.66470 94.64740 -30.91730
     CHANNELS 6 Xposition Yposition Zposition Zrotation Xrotation Yrotation
     JOINT Spine
     {
          OFFSET 0.00000 11.89050 0.00000
          CHANNELS 3 Zrotation Xrotation Yrotation
          JOINT Spine1
          {
               OFFSET 0.00000 25.65740 0.12766
               CHANNELS 3 Zrotation Xrotation Yrotation
               JOINT HEad
               {
                    OFFSET 0.00000 8.73416 0.01134
                    CHANNELS 3 Zrotation Xrotation Yrotation
                    End Site
                    {
                         OFFSET -0.29000 12.77420 2.51395
                    }
               }
               JOINT LeftShoulder1
               {
                    OFFSET 8.99000 -0.36225 -0.22000
                    CHANNELS 3 Zrotation Xrotation Yrotation
                    JOINT LeftArm
                    {
                         OFFSET 10.28270 -0.00338 0.32212
                         CHANNELS 3 Zrotation Xrotation Yrotation
                         JOINT LeftForeArm
                         {
                              OFFSET 32.76690 0.09914 -1.42434
                              CHANNELS 3 Zrotation Xrotation Yrotation
                              JOINT LeftHand
                              {
                                   OFFSET 27.56430 0.08536 1.02216
                                   CHANNELS 3 Zrotation Xrotation Yrotation
                                   End Site
                                   {
                                        OFFSET 16.74430 -0.60000 1.50291
                                   }
                              }
                         }
                    }
               }
               JOINT RightShoulder
               {
                    OFFSET -8.99000 -0.36225 -0.22000
                    CHANNELS 3 Zrotation Xrotation Yrotation
                    JOINT RightArm
                    {
                         OFFSET -10.28270 -0.00338 0.32212
                         CHANNELS 3 Zrotation Xrotation Yrotation
                         JOINT RightForeArm
                         {
                              OFFSET -32.89710 0.09914 -1.42434
                              CHANNELS 3 Zrotation Xrotation Yrotation
                              JOINT RightHand
                              {
                                   OFFSET -27.49210 0.08536 1.02216
                                   CHANNELS 3 Zrotation Xrotation Yrotation
                                   End Site
                                   {
                                        OFFSET -16.63120 -0.60000 1.50291
                                   }
                              }
                         }
                    }
               }
          }
     }
     JOINT LeftUpLeg
     {
          OFFSET 8.94580 -8.66707 0.10165
          CHANNELS 3 Zrotation Xrotation Yrotation
          JOINT LeftLeg
          {
               OFFSET 0.00000 -44.42270 1.37270
               CHANNELS 3 Zrotation Xrotation Yrotation
               JOINT LeftFoot
               {
                    OFFSET -0.25355 -42.09240 -1.46059
                    CHANNELS 3 Zrotation Xrotation Yrotation
                    JOINT LeftToes
                    {
                         OFFSET -0.04000 -4.41509 8.49910
                         CHANNELS 3 Zrotation Xrotation Yrotation
                         End Site
                         {
                              OFFSET 0.08000 -0.04745 9.77979
                         }
                    }
               }
          }
     }
     JOINT RightUpLeg
     {
          OFFSET -8.94580 -8.66707 0.10165
          CHANNELS 3 Zrotation Xrotation Yrotation
          JOINT RightLeg
          {
               OFFSET 0.00000 -44.42270 1.37270
               CHANNELS 3 Zrotation Xrotation Yrotation
               JOINT RightFoot
               {
                    OFFSET 0.25355 -42.09240 -1.46059
                    CHANNELS 3 Zrotation Xrotation Yrotation
                    JOINT RightToes
                    {
                         OFFSET 0.04000 -4.41509 8.49910
                         CHANNELS 3 Zrotation Xrotation Yrotation
                         End Site
                         {
                              OFFSET -0.08000 -0.13745 9.77979
                         }
                    }
               }
          }
     }
}
MOTION
Frames: 14
Frame Time: 0.01667
26.66470 94.64740 -30.91730 -7.38587 -10.92060 -28.25240 5.24756 5.28995 0.09989 1.21150 11.42950 1.48692 -5.40048 12.87850 5.00544 0.00000 0.00000 0.00000 -84.15780 -27.09020 -59.34030 16.60070 29.96700 -93.21090 36.48090 13.56850 15.89920 14.34390 1.12507 3.99115 64.41330 -16.59170 65.04030 0.05028 30.38310 92.15490 -7.91038 8.92714 11.30490 17.90690 -12.54030 7.09964 -1.99615 21.37920 5.34133 -10.83470 7.15385 1.34125 -7.65375 -9.76473 -2.45656 -6.82348 -2.84641 -6.63047 10.78480 42.61690 -19.43260 0.99915 -31.10780 -0.11829 3.73833 15.94210 -12.93860 
26.42270 94.63720 -30.85940 -7.29292 -10.83360 -28.58220 5.24434 5.28797 0.07023 1.33230 11.41020 1.41417 -5.49037 12.63190 5.08931 0.00000 0.00000 0.00000 -84.24760 -27.30820 -59.19230 16.54950 30.00880 -93.26320 36.41080 13.57260 15.93650 13.98110 1.10701 3.99588 64.54110 -16.07130 65.10760 -0.04953 30.35500 92.18160 -7.95595 8.91944 11.32840 18.04020 -12.52670 7.20811 -2.01627 21.59610 5.53006 -10.82700 6.68987 1.29949 -7.19011 -9.16083 -2.35783 -6.61281 -3.00006 -6.61554 10.27910 42.82450 -18.78310 1.05335 -31.27840 -0.10611 3.74846 15.93350 -13.31370 
26.16940 94.61620 -30.79640 -7.19298 -10.75770 -28.95690 5.23314 5.28951 0.03533 1.41777 11.39880 1.33584 -5.58555 12.48380 5.23334 0.00000 0.00000 0.00000 -84.31020 -27.54500 -59.06590 16.47710 30.03070 -93.25910 36.38180 13.56600 15.92570 13.69130 1.09795 4.03227 64.53850 -15.44020 65.22150 -0.11583 30.29660 92.15300 -8.00154 8.91280 11.33520 18.18470 -12.45170 7.20491 -2.11899 21.74360 5.91146 -10.78720 6.42350 1.27116 -7.16439 -9.09511 -2.41402 -6.36780 -3.17481 -6.59544 9.68832 43.08550 -18.01050 0.94811 -31.49650 -0.12854 3.80211 16.03050 -13.87790 
25.90000 94.58500 -30.72620 -7.09792 -10.70720 -29.40070 5.19503 5.30893 0.00559 1.46560 11.42080 1.27133 -5.70722 12.51750 5.36284 0.00000 0.00000 0.00000 -84.32250 -27.76700 -58.97790 16.39480 30.03520 -93.19070 36.41510 13.55520 15.87990 13.51650 1.09665 4.08027 64.32530 -14.67960 65.41120 -0.17502 30.20030 92.05530 -8.08076 8.90153 11.34230 18.35220 -12.28740 7.04606 -2.33473 21.82460 6.54363 -10.68880 6.33690 1.25150 -7.56594 -9.55244 -2.62236 -6.08471 -3.35020 -6.53030 9.03910 43.39070 -17.15000 0.61752 -31.79510 -0.20139 3.92700 16.31770 -14.50030 
25.61190 94.54850 -30.64480 -7.02325 -10.67310 -29.92470 5.14384 5.34653 -0.01944 1.50986 11.47630 1.21723 -5.88677 12.69500 5.46012 0.00000 0.00000 0.00000 -84.33080 -28.00280 -58.91470 16.32470 30.04950 -93.11180 36.46560 13.54890 15.84260 13.37910 1.09535 4.11687 63.96100 -13.75750 65.68740 -0.30402 30.07760 91.92370 -8.19396 8.88570 11.34810 18.53940 -12.05180 6.80402 -2.59048 21.88640 7.33374 -10.53090 6.33117 1.23164 -8.21697 -10.30630 -2.92669 -5.75129 -3.51287 -6.40313 8.33307 43.71460 -16.23420 0.12340 -32.16040 -0.31337 4.09150 16.72500 -14.93920 
25.30760 94.51540 -30.55080 -6.97007 -10.64550 -30.52620 5.09775 5.39476 -0.04765 1.57873 11.55140 1.15712 -6.12953 12.90970 5.55772 0.00000 0.00000 0.00000 -84.36340 -28.29110 -58.84320 16.28700 30.09020 -93.06450 36.49080 13.55630 15.85750 13.18680 1.08977 4.14559 63.56920 -12.66210 66.03840 -0.56954 29.95430 91.80420 -8.31268 8.86922 11.35210 18.72710 -11.78670 6.51029 -2.84306 21.99540 8.21451 -10.25910 6.22602 1.18958 -8.75316 -10.95040 -3.12715 -5.38308 -3.65192 -6.19257 7.59635 44.01570 -15.34200 -0.37084 -32.50790 -0.42873 4.16345 16.92810 -14.90280 
24.99270 94.49190 -30.44670 -6.92987 -10.62470 -31.19300 5.04892 5.44498 -0.08697 1.66529 11.62850 1.07473 -6.39447 13.09170 5.66219 0.00000 0.00000 0.00000 -84.37030 -28.63530 -58.72680 16.31480 30.14490 -93.06490 36.47630 13.59530 15.98550 12.95270 1.08594 4.20010 63.21140 -11.42320 66.43370 -0.97018 29.86040 91.71460 -8.41497 8.85427 11.36660 18.91130 -11.54170 6.04632 -3.18808 22.22820 9.28324 -9.71712 5.80833 1.09098 -8.74379 -11.05940 -2.90741 -5.01742 -3.75728 -5.89805 6.86976 44.26220 -14.54490 -0.72866 -32.74320 -0.51413 4.01940 16.60490 -14.25580 
24.67320 94.47520 -30.33170 -6.90293 -10.60880 -31.92130 4.97503 5.48887 -0.13737 1.73885 11.69020 0.96833 -6.58294 13.21820 5.74030 0.00000 0.00000 0.00000 -84.26440 -29.01270 -58.52850 16.47430 30.19190 -93.14050 36.40640 13.68570 16.29530 12.80240 1.09440 4.30543 62.80690 -10.08160 66.84370 -1.42825 29.80040 91.63670 -8.51432 8.83817 11.40330 19.12050 -11.36190 5.27649 -3.78112 22.64900 10.70950 -8.71661 5.00294 0.91703 -8.03405 -10.49990 -2.09743 -4.67521 -3.82697 -5.55825 6.16515 44.45060 -13.83480 -0.95212 -32.82690 -0.56724 3.67570 15.73640 -13.16530 
24.35440 94.45280 -30.19710 -6.90443 -10.59150 -32.72900 4.87948 5.52700 -0.19052 1.79353 11.73890 0.85374 -6.62300 13.28460 5.78319 0.00000 0.00000 0.00000 -84.01000 -29.40460 -58.23290 16.83470 30.21450 -93.31900 36.25570 13.82670 16.79650 12.78470 1.11375 4.43504 62.26260 -8.63827 67.28340 -1.86984 29.74160 91.55320 -8.62985 8.81846 11.45890 19.38910 -11.27080 4.20047 -4.68591 23.28300 12.59070 -7.22942 4.01345 0.69633 -6.97414 -9.63087 -0.88510 -4.35205 -3.86693 -5.22858 5.45464 44.61480 -13.11210 -1.13002 -32.81610 -0.60836 3.28254 14.66130 -12.00170 
24.04150 94.41210 -30.03510 -6.94779 -10.56810 -33.64290 4.78782 5.57183 -0.23942 1.86511 11.80100 0.74365 -6.56427 13.31140 5.84384 0.00000 0.00000 0.00000 -83.63470 -29.83030 -57.84200 17.42850 30.20160 -93.60370 36.00850 13.99330 17.42160 12.76200 1.12711 4.52849 61.63350 -7.05726 67.82270 -2.31506 29.64840 91.48750 -8.74125 8.79953 11.50990 19.72590 -11.28540 2.88544 -5.85192 24.13870 14.96530 -5.53290 3.19716 0.48911 -6.11361 -9.02639 0.35155 -4.03787 -3.89098 -4.95242 4.68865 44.80910 -12.23670 -1.31708 -32.83290 -0.65214 2.99416 13.82220 -11.09240 
23.73830 94.35190 -29.85000 -7.02870 -10.53450 -34.68300 4.70247 5.63497 -0.28385 1.98948 11.89710 0.63174 -6.54557 13.34730 6.01174 0.00000 0.00000 0.00000 -83.15650 -30.36370 -57.32300 18.21120 30.16650 -93.97210 35.68860 14.15070 18.05580 12.56930 1.12093 4.55898 61.05250 -5.31289 68.53100 -2.83803 29.51580 91.47910 -8.80292 8.78995 11.52480 20.11360 -11.44770 1.37313 -7.20161 25.24830 17.84390 -4.01229 2.82298 0.33425 -5.75163 -9.00645 1.33547 -3.72875 -3.91900 -4.72527 3.84298 45.05680 -11.13600 -1.53659 -32.94740 -0.70571 2.85382 13.39790 -10.56560 
23.44570 94.28320 -29.65250 -7.12972 -10.48680 -35.85580 4.59760 5.71961 -0.32612 2.17109 12.02970 0.50412 -6.68900 13.39830 6.35276 0.00000 0.00000 0.00000 -82.55630 -31.08600 -56.60620 19.04610 30.15150 -94.38810 35.36860 14.27410 18.59120 12.18660 1.09793 4.55057 60.56730 -3.42193 69.42960 -3.44288 29.36660 91.52030 -8.79350 8.79397 11.48660 20.51210 -11.82320 -0.25135 -8.65769 26.68040 21.11170 -2.81772 2.97852 0.22786 -5.83868 -9.49492 2.00022 -3.43172 -3.96347 -4.49630 2.94941 45.33150 -9.85693 -1.82865 -33.11820 -0.77824 2.79670 13.22100 -10.34900 
23.16390 94.21760 -29.44400 -7.23522 -10.43140 -37.14370 4.45881 5.82554 -0.36852 2.39724 12.19790 0.35356 -7.02574 13.37950 6.85673 0.00000 0.00000 0.00000 -81.82920 -32.01770 -55.64250 19.79150 30.19840 -94.83680 35.12460 14.36490 18.99510 11.70280 1.06798 4.53327 60.06290 -1.40644 70.49330 -4.05386 29.15620 91.55100 -8.74537 8.80582 11.41260 20.85230 -12.45960 -1.79553 -10.09050 28.51650 24.47000 -1.87657 3.59833 0.14691 -6.06959 -10.09710 2.45233 -3.17222 -4.01303 -4.22483 2.06844 45.58870 -8.51534 -2.21544 -33.24390 -0.87289 2.72482 12.99220 -10.21950 
22.89700 94.15990 -29.20940 -7.34258 -10.38570 -38.50910 4.30614 5.95338 -0.41390 2.65955 12.40760 0.18210 -7.47983 13.20540 7.43345 0.00000 0.00000 0.00000 -81.01160 -33.10380 -54.42750 20.40560 30.31460 -95.33740 34.98120 14.44100 19.31010 11.19310 1.03556 4.50757 59.44290 0.67739 71.68820 -4.60090 28.87730 91.52560 -8.75255 8.80886 11.35580 21.05020 -13.34440 -3.00236 -11.29480 30.79720 27.52150 -1.10903 4.53930 0.07498 -6.06425 -10.33190 2.88766 -2.99150 -4.03515 -3.91589 1.25149 45.79900 -7.21807 -2.64864 -33.24420 -0.97534 2.56770 12.48500 -9.90296 
